<svg width="300" height="32" viewBox="0 0 300 32" fill="none" xmlns="http://www.w3.org/2000/svg">
<g clip-path="url(#clip0_2033_664)">
<path fill-rule="evenodd" clip-rule="evenodd" d="M9.91161 29.1312C9.91161 29.3914 9.61028 29.5356 9.40763 29.3725L0.115502 21.8917C0.0424693 21.8329 0 21.7442 0 21.6504V2.05249H9.91161C10.4474 2.05249 19.8232 2.45431 19.8232 11.8302C19.8232 19.122 13.5783 21.4042 10.195 21.7718C10.0346 21.7892 9.91161 21.923 9.91161 22.0843V29.1312ZM4.15765 12.7032C4.0366 12.9097 4.18551 13.1696 4.42486 13.1696H8.97236C9.12688 13.1696 9.25777 13.2835 9.27912 13.4365L9.9123 17.9743C9.95391 18.2725 10.3535 18.342 10.4934 18.0753L14.1069 11.1871C14.2118 10.987 14.0741 10.7454 13.8484 10.7339L9.36552 10.504C9.21628 10.4963 9.09378 10.3832 9.07429 10.235L8.556 6.29604C8.51753 6.00364 8.13085 5.92538 7.9817 6.1798L4.15765 12.7032Z" fill="white"/>
<path d="M29.2393 26.2737C24.9598 26.2737 21.7571 22.9053 21.7571 18.6257C21.7571 14.3186 24.9598 10.9778 29.2393 10.9778C33.5189 10.9778 36.7216 14.3186 36.7216 18.6257C36.7216 22.9053 33.5189 26.2737 29.2393 26.2737ZM29.2393 22.8777C31.1444 22.8777 32.7734 21.3591 32.7734 18.6257C32.7734 15.8924 31.1444 14.4014 29.2393 14.4014C27.3343 14.4014 25.7053 15.8924 25.7053 18.6257C25.7053 21.3591 27.3343 22.8777 29.2393 22.8777Z" fill="white"/>
<path d="M50.8863 25.9976L48.0977 16.417L45.3368 25.9976H41.499L37.3023 11.2539H41.0296L43.5421 20.586L46.2479 11.2539H50.0304L52.6534 20.586L55.1383 11.2539H58.9208L54.6965 25.9976H50.8863Z" fill="white"/>
<path d="M66.8768 26.2461C62.4592 26.2461 59.5049 23.1814 59.5049 18.5705C59.5049 14.1806 62.5696 10.9778 66.8215 10.9778C71.4876 10.9778 74.5799 14.7604 73.8897 19.5645H63.4255C63.674 21.9665 64.8336 23.2918 66.7939 23.2918C68.4781 23.2918 69.6101 22.4635 70.0519 21.0002H73.862C73.0338 24.341 70.466 26.2461 66.8768 26.2461ZM66.7387 13.794C64.9441 13.794 63.8121 14.9536 63.4807 17.1348H69.831C69.7206 15.0917 68.561 13.794 66.7387 13.794Z" fill="white"/>
<path d="M80.2979 18.8466V25.9976H76.4602V11.2539H79.9942V14.0977C81.071 12.2203 83.3626 11.0883 85.7371 11.0883V15.0641C82.4791 14.8156 80.2979 15.5887 80.2979 18.8466Z" fill="white"/>
<path d="M100.873 25.9976H88.0619V6.17371H92.2586V22.215H100.873V25.9976Z" fill="white"/>
<path d="M112.203 25.9976V24.1753C111.237 25.5558 109.773 26.2737 107.758 26.2737C104.693 26.2737 102.65 24.479 102.65 21.7181C102.65 18.8466 104.969 17.3005 109.276 17.3005C110.104 17.3005 110.822 17.3557 111.733 17.4661V16.5826C111.733 14.926 110.795 13.9597 109.193 13.9597C107.537 13.9597 106.543 14.926 106.405 16.5826H102.954C103.174 13.1866 105.632 10.9778 109.193 10.9778C113.059 10.9778 115.323 13.1038 115.323 16.7207V25.9976H112.203ZM106.267 21.6076C106.267 22.8501 107.15 23.6231 108.586 23.6231C110.546 23.6231 111.733 22.5463 111.733 20.8345V19.7854C110.822 19.6473 110.187 19.5921 109.525 19.5921C107.344 19.5921 106.267 20.2823 106.267 21.6076Z" fill="white"/>
<path d="M133.346 18.6257C133.346 22.9329 130.778 26.2737 126.802 26.2737C124.897 26.2737 123.296 25.4178 122.164 23.8716V25.9976H118.63V6.17371H122.468V13.159C123.544 11.7233 125.035 10.9778 126.802 10.9778C130.778 10.9778 133.346 14.2634 133.346 18.6257ZM129.398 18.6257C129.398 15.8095 127.824 14.3738 125.947 14.3738C124.097 14.3738 122.495 15.7819 122.495 18.5705C122.495 21.3591 124.041 22.8501 125.947 22.8501C127.824 22.8501 129.398 21.3867 129.398 18.6257Z" fill="white"/>
<path d="M148.257 21.2763C148.257 24.3686 145.91 26.2737 141.714 26.2737C137.517 26.2737 135.17 24.2582 134.866 20.9726H138.539C138.566 22.4911 139.864 23.4575 141.769 23.4575C143.26 23.4575 144.392 22.9881 144.392 21.9389C144.392 21.0002 143.784 20.6137 142.376 20.3376L139.726 19.8406C137.075 19.3712 135.474 17.9079 135.474 15.6163C135.474 12.8829 137.821 10.9778 141.493 10.9778C145.193 10.9778 147.733 12.9381 148.009 16.1133H144.337C144.199 14.6775 143.122 13.794 141.493 13.794C140.085 13.794 139.146 14.3186 139.146 15.2573C139.146 16.1409 139.753 16.4998 141.079 16.7483L143.922 17.2729C146.794 17.8251 148.257 19.1503 148.257 21.2763Z" fill="white"/>
</g>
<defs>
<clipPath id="clip0_2033_664">
<rect width="148.966" height="31.8644" fill="white"/>
</clipPath>
</defs>
</svg>
